<svg xmlns="http://www.w3.org/2000/svg" xmlns:xlink="http://www.w3.org/1999/xlink" width="500" zoomAndPan="magnify" viewBox="0 0 375 374.999991" height="500" preserveAspectRatio="xMidYMid meet" version="1.2"><defs><clipPath id="b87ca172cc"><rect x="0" width="282" y="0" height="75"/></clipPath><clipPath id="006f9b0867"><path d="M 5.828125 101.402344 L 89.828125 101.402344 L 89.828125 223.652344 L 5.828125 223.652344 Z M 5.828125 101.402344 "/></clipPath></defs><g id="df7884d2fb"><g transform="matrix(1,0,0,1,90,146)"><g clip-path="url(#b87ca172cc)"><g style="fill:#000000;fill-opacity:0.4;"><g transform="translate(0.15254, 53.015812)"><path style="stroke:none" d="M 14.734375 -30.40625 L 14.734375 0 L 3.5625 0 L 3.5625 -49 L 14.734375 -49 L 34.203125 -18.59375 L 34.328125 -18.59375 L 34.328125 -49 L 45.5 -49 L 45.5 0 L 34.328125 0 L 14.84375 -30.40625 Z M 14.734375 -30.40625 "/></g></g><g style="fill:#000000;fill-opacity:0.4;"><g transform="translate(46.597123, 53.015812)"><path style="stroke:none" d="M 6.4375 -3.625 C 3.050781 -6.632812 1.359375 -10.492188 1.359375 -15.203125 C 1.359375 -19.910156 3.117188 -23.78125 6.640625 -26.8125 C 10.171875 -29.84375 14.53125 -31.359375 19.71875 -31.359375 C 24.820312 -31.359375 29.125 -29.832031 32.625 -26.78125 C 36.132812 -23.738281 37.890625 -19.878906 37.890625 -15.203125 C 37.890625 -10.535156 36.175781 -6.6875 32.75 -3.65625 C 29.320312 -0.625 24.976562 0.890625 19.71875 0.890625 C 14.25 0.890625 9.820312 -0.613281 6.4375 -3.625 Z M 14.578125 -20.375 C 13.210938 -19.03125 12.53125 -17.304688 12.53125 -15.203125 C 12.53125 -13.109375 13.179688 -11.394531 14.484375 -10.0625 C 15.796875 -8.738281 17.519531 -8.078125 19.65625 -8.078125 C 21.71875 -8.078125 23.410156 -8.75 24.734375 -10.09375 C 26.054688 -11.4375 26.71875 -13.140625 26.71875 -15.203125 C 26.71875 -17.304688 26.035156 -19.03125 24.671875 -20.375 C 23.304688 -21.71875 21.632812 -22.390625 19.65625 -22.390625 C 17.632812 -22.390625 15.941406 -21.71875 14.578125 -20.375 Z M 14.578125 -20.375 "/></g></g><g style="fill:#000000;fill-opacity:0.4;"><g transform="translate(83.241929, 53.015812)"><path style="stroke:none" d="M 5.34375 -30.46875 L 5.34375 -41.8125 L 15.859375 -41.8125 L 15.859375 -30.46875 L 22.265625 -30.46875 L 22.265625 -22.453125 L 15.859375 -22.453125 L 15.859375 -12.765625 C 15.859375 -9.953125 16.648438 -8.546875 18.234375 -8.546875 C 18.628906 -8.546875 19.046875 -8.625 19.484375 -8.78125 C 19.921875 -8.945312 20.253906 -9.109375 20.484375 -9.265625 L 20.84375 -9.5 L 23.453125 -1.015625 C 21.203125 0.253906 18.628906 0.890625 15.734375 0.890625 C 13.753906 0.890625 12.050781 0.546875 10.625 -0.140625 C 9.207031 -0.835938 8.128906 -1.769531 7.390625 -2.9375 C 6.660156 -4.101562 6.132812 -5.328125 5.8125 -6.609375 C 5.5 -7.898438 5.34375 -9.28125 5.34375 -10.75 L 5.34375 -22.453125 L 0.953125 -22.453125 L 0.953125 -30.46875 Z M 5.34375 -30.46875 "/></g></g><g style="fill:#000000;fill-opacity:0.4;"><g transform="translate(104.088285, 53.015812)"><path style="stroke:none" d="M 34.390625 -13.78125 L 12.296875 -13.78125 C 12.296875 -11.644531 12.988281 -10.0625 14.375 -9.03125 C 15.757812 -8 17.265625 -7.484375 18.890625 -7.484375 C 20.585938 -7.484375 21.929688 -7.707031 22.921875 -8.15625 C 23.910156 -8.613281 25.039062 -9.519531 26.3125 -10.875 L 33.90625 -7.0625 C 30.738281 -1.757812 25.472656 0.890625 18.109375 0.890625 C 13.515625 0.890625 9.570312 -0.679688 6.28125 -3.828125 C 3 -6.972656 1.359375 -10.765625 1.359375 -15.203125 C 1.359375 -19.640625 3 -23.441406 6.28125 -26.609375 C 9.570312 -29.773438 13.515625 -31.359375 18.109375 -31.359375 C 22.941406 -31.359375 26.875 -29.960938 29.90625 -27.171875 C 32.9375 -24.378906 34.453125 -20.390625 34.453125 -15.203125 C 34.453125 -14.492188 34.429688 -14.019531 34.390625 -13.78125 Z M 12.59375 -19.59375 L 24.171875 -19.59375 C 23.929688 -21.175781 23.304688 -22.394531 22.296875 -23.25 C 21.285156 -24.101562 19.988281 -24.53125 18.40625 -24.53125 C 16.664062 -24.53125 15.28125 -24.070312 14.25 -23.15625 C 13.21875 -22.25 12.664062 -21.0625 12.59375 -19.59375 Z M 12.59375 -19.59375 "/></g></g><g style="fill:#000000;fill-opacity:0.4;"><g transform="translate(137.28831, 53.015812)"><path style="stroke:none" d="M 31.890625 -49 L 31.890625 -39.203125 L 14.734375 -39.203125 L 14.734375 -29.453125 L 30.59375 -29.453125 L 30.59375 -19.65625 L 14.734375 -19.65625 L 14.734375 0 L 3.5625 0 L 3.5625 -49 Z M 31.890625 -49 "/></g></g><g style="fill:#000000;fill-opacity:0.4;"><g transform="translate(168.35021, 53.015812)"><path style="stroke:none" d="M 3.5625 0 L 3.5625 -51.078125 L 14.078125 -51.078125 L 14.078125 0 Z M 3.5625 0 "/></g></g><g style="fill:#000000;fill-opacity:0.4;"><g transform="translate(183.376085, 53.015812)"><path style="stroke:none" d="M 6.4375 -3.625 C 3.050781 -6.632812 1.359375 -10.492188 1.359375 -15.203125 C 1.359375 -19.910156 3.117188 -23.78125 6.640625 -26.8125 C 10.171875 -29.84375 14.53125 -31.359375 19.71875 -31.359375 C 24.820312 -31.359375 29.125 -29.832031 32.625 -26.78125 C 36.132812 -23.738281 37.890625 -19.878906 37.890625 -15.203125 C 37.890625 -10.535156 36.175781 -6.6875 32.75 -3.65625 C 29.320312 -0.625 24.976562 0.890625 19.71875 0.890625 C 14.25 0.890625 9.820312 -0.613281 6.4375 -3.625 Z M 14.578125 -20.375 C 13.210938 -19.03125 12.53125 -17.304688 12.53125 -15.203125 C 12.53125 -13.109375 13.179688 -11.394531 14.484375 -10.0625 C 15.796875 -8.738281 17.519531 -8.078125 19.65625 -8.078125 C 21.71875 -8.078125 23.410156 -8.75 24.734375 -10.09375 C 26.054688 -11.4375 26.71875 -13.140625 26.71875 -15.203125 C 26.71875 -17.304688 26.035156 -19.03125 24.671875 -20.375 C 23.304688 -21.71875 21.632812 -22.390625 19.65625 -22.390625 C 17.632812 -22.390625 15.941406 -21.71875 14.578125 -20.375 Z M 14.578125 -20.375 "/></g></g><g style="fill:#000000;fill-opacity:0.4;"><g transform="translate(220.020892, 53.015812)"><path style="stroke:none" d="M 22.265625 0 L 15.140625 0 L -1.1875 -30.46875 L 10.921875 -30.46875 L 18.359375 -14.015625 L 25.65625 -30.46875 L 32.90625 -30.46875 L 40.203125 -14.015625 L 47.625 -30.46875 L 59.75 -30.46875 L 43.421875 0 L 36.28125 0 L 29.28125 -15.734375 Z M 22.265625 0 "/></g></g><g style="fill:#000000;fill-opacity:1;"><g transform="translate(0.15254, 53.015812)"><path style="stroke:none" d="M 14.734375 -30.40625 L 14.734375 0 L 3.5625 0 L 3.5625 -49 L 14.734375 -49 L 34.203125 -18.59375 L 34.328125 -18.59375 L 34.328125 -49 L 45.5 -49 L 45.5 0 L 34.328125 0 L 14.84375 -30.40625 Z M 14.734375 -30.40625 "/></g></g><g style="fill:#000000;fill-opacity:1;"><g transform="translate(46.597123, 53.015812)"><path style="stroke:none" d="M 6.4375 -3.625 C 3.050781 -6.632812 1.359375 -10.492188 1.359375 -15.203125 C 1.359375 -19.910156 3.117188 -23.78125 6.640625 -26.8125 C 10.171875 -29.84375 14.53125 -31.359375 19.71875 -31.359375 C 24.820312 -31.359375 29.125 -29.832031 32.625 -26.78125 C 36.132812 -23.738281 37.890625 -19.878906 37.890625 -15.203125 C 37.890625 -10.535156 36.175781 -6.6875 32.75 -3.65625 C 29.320312 -0.625 24.976562 0.890625 19.71875 0.890625 C 14.25 0.890625 9.820312 -0.613281 6.4375 -3.625 Z M 14.578125 -20.375 C 13.210938 -19.03125 12.53125 -17.304688 12.53125 -15.203125 C 12.53125 -13.109375 13.179688 -11.394531 14.484375 -10.0625 C 15.796875 -8.738281 17.519531 -8.078125 19.65625 -8.078125 C 21.71875 -8.078125 23.410156 -8.75 24.734375 -10.09375 C 26.054688 -11.4375 26.71875 -13.140625 26.71875 -15.203125 C 26.71875 -17.304688 26.035156 -19.03125 24.671875 -20.375 C 23.304688 -21.71875 21.632812 -22.390625 19.65625 -22.390625 C 17.632812 -22.390625 15.941406 -21.71875 14.578125 -20.375 Z M 14.578125 -20.375 "/></g></g><g style="fill:#000000;fill-opacity:1;"><g transform="translate(83.241929, 53.015812)"><path style="stroke:none" d="M 5.34375 -30.46875 L 5.34375 -41.8125 L 15.859375 -41.8125 L 15.859375 -30.46875 L 22.265625 -30.46875 L 22.265625 -22.453125 L 15.859375 -22.453125 L 15.859375 -12.765625 C 15.859375 -9.953125 16.648438 -8.546875 18.234375 -8.546875 C 18.628906 -8.546875 19.046875 -8.625 19.484375 -8.78125 C 19.921875 -8.945312 20.253906 -9.109375 20.484375 -9.265625 L 20.84375 -9.5 L 23.453125 -1.015625 C 21.203125 0.253906 18.628906 0.890625 15.734375 0.890625 C 13.753906 0.890625 12.050781 0.546875 10.625 -0.140625 C 9.207031 -0.835938 8.128906 -1.769531 7.390625 -2.9375 C 6.660156 -4.101562 6.132812 -5.328125 5.8125 -6.609375 C 5.5 -7.898438 5.34375 -9.28125 5.34375 -10.75 L 5.34375 -22.453125 L 0.953125 -22.453125 L 0.953125 -30.46875 Z M 5.34375 -30.46875 "/></g></g><g style="fill:#000000;fill-opacity:1;"><g transform="translate(104.088285, 53.015812)"><path style="stroke:none" d="M 34.390625 -13.78125 L 12.296875 -13.78125 C 12.296875 -11.644531 12.988281 -10.0625 14.375 -9.03125 C 15.757812 -8 17.265625 -7.484375 18.890625 -7.484375 C 20.585938 -7.484375 21.929688 -7.707031 22.921875 -8.15625 C 23.910156 -8.613281 25.039062 -9.519531 26.3125 -10.875 L 33.90625 -7.0625 C 30.738281 -1.757812 25.472656 0.890625 18.109375 0.890625 C 13.515625 0.890625 9.570312 -0.679688 6.28125 -3.828125 C 3 -6.972656 1.359375 -10.765625 1.359375 -15.203125 C 1.359375 -19.640625 3 -23.441406 6.28125 -26.609375 C 9.570312 -29.773438 13.515625 -31.359375 18.109375 -31.359375 C 22.941406 -31.359375 26.875 -29.960938 29.90625 -27.171875 C 32.9375 -24.378906 34.453125 -20.390625 34.453125 -15.203125 C 34.453125 -14.492188 34.429688 -14.019531 34.390625 -13.78125 Z M 12.59375 -19.59375 L 24.171875 -19.59375 C 23.929688 -21.175781 23.304688 -22.394531 22.296875 -23.25 C 21.285156 -24.101562 19.988281 -24.53125 18.40625 -24.53125 C 16.664062 -24.53125 15.28125 -24.070312 14.25 -23.15625 C 13.21875 -22.25 12.664062 -21.0625 12.59375 -19.59375 Z M 12.59375 -19.59375 "/></g></g><g style="fill:#000000;fill-opacity:1;"><g transform="translate(137.28831, 53.015812)"><path style="stroke:none" d="M 31.890625 -49 L 31.890625 -39.203125 L 14.734375 -39.203125 L 14.734375 -29.453125 L 30.59375 -29.453125 L 30.59375 -19.65625 L 14.734375 -19.65625 L 14.734375 0 L 3.5625 0 L 3.5625 -49 Z M 31.890625 -49 "/></g></g><g style="fill:#000000;fill-opacity:1;"><g transform="translate(168.35021, 53.015812)"><path style="stroke:none" d="M 3.5625 0 L 3.5625 -51.078125 L 14.078125 -51.078125 L 14.078125 0 Z M 3.5625 0 "/></g></g><g style="fill:#000000;fill-opacity:1;"><g transform="translate(183.376085, 53.015812)"><path style="stroke:none" d="M 6.4375 -3.625 C 3.050781 -6.632812 1.359375 -10.492188 1.359375 -15.203125 C 1.359375 -19.910156 3.117188 -23.78125 6.640625 -26.8125 C 10.171875 -29.84375 14.53125 -31.359375 19.71875 -31.359375 C 24.820312 -31.359375 29.125 -29.832031 32.625 -26.78125 C 36.132812 -23.738281 37.890625 -19.878906 37.890625 -15.203125 C 37.890625 -10.535156 36.175781 -6.6875 32.75 -3.65625 C 29.320312 -0.625 24.976562 0.890625 19.71875 0.890625 C 14.25 0.890625 9.820312 -0.613281 6.4375 -3.625 Z M 14.578125 -20.375 C 13.210938 -19.03125 12.53125 -17.304688 12.53125 -15.203125 C 12.53125 -13.109375 13.179688 -11.394531 14.484375 -10.0625 C 15.796875 -8.738281 17.519531 -8.078125 19.65625 -8.078125 C 21.71875 -8.078125 23.410156 -8.75 24.734375 -10.09375 C 26.054688 -11.4375 26.71875 -13.140625 26.71875 -15.203125 C 26.71875 -17.304688 26.035156 -19.03125 24.671875 -20.375 C 23.304688 -21.71875 21.632812 -22.390625 19.65625 -22.390625 C 17.632812 -22.390625 15.941406 -21.71875 14.578125 -20.375 Z M 14.578125 -20.375 "/></g></g><g style="fill:#000000;fill-opacity:1;"><g transform="translate(220.020892, 53.015812)"><path style="stroke:none" d="M 22.265625 0 L 15.140625 0 L -1.1875 -30.46875 L 10.921875 -30.46875 L 18.359375 -14.015625 L 25.65625 -30.46875 L 32.90625 -30.46875 L 40.203125 -14.015625 L 47.625 -30.46875 L 59.75 -30.46875 L 43.421875 0 L 36.28125 0 L 29.28125 -15.734375 Z M 22.265625 0 "/></g></g></g></g><g clip-rule="nonzero" clip-path="url(#006f9b0867)"><path style=" stroke:none;fill-rule:evenodd;fill:#f6b900;fill-opacity:1;" d="M 35.382812 213 C 36.34375 219.082031 41.621094 223.734375 47.988281 223.734375 C 54.355469 223.734375 59.632812 219.082031 60.59375 213 C 60.671875 212.480469 60.539062 211.984375 60.203125 211.570312 C 59.863281 211.152344 59.398438 210.945312 58.878906 210.945312 L 37.121094 210.945312 C 36.601562 210.945312 36.136719 211.152344 35.796875 211.570312 C 35.433594 211.984375 35.304688 212.453125 35.382812 213 Z M 61.867188 191.347656 C 65.894531 191.347656 69.171875 194.621094 69.171875 198.652344 C 69.171875 202.679688 65.894531 205.953125 61.867188 205.953125 L 34.109375 205.953125 C 30.078125 205.953125 26.804688 202.679688 26.804688 198.652344 C 26.804688 196.234375 28 194.078125 29.820312 192.75 L 58.589844 170.347656 C 60.75 168.65625 63.0625 166.785156 65.296875 165.121094 C 68.417969 162.601562 70.988281 159.402344 72.78125 155.792969 C 74.550781 152.179688 75.5625 148.046875 75.5625 143.652344 C 75.5625 136.039062 72.472656 129.148438 67.480469 124.160156 C 62.492188 119.167969 55.601562 116.078125 47.988281 116.078125 C 40.371094 116.078125 33.484375 119.167969 28.492188 124.160156 C 23.503906 129.148438 20.410156 136.039062 20.410156 143.652344 C 20.410156 148.929688 21.867188 153.84375 24.386719 157.972656 C 27.011719 162.289062 30.808594 165.851562 35.328125 168.164062 C 38.890625 170.007812 40.292969 174.402344 38.472656 177.960938 C 36.628906 181.523438 32.234375 182.925781 28.675781 181.105469 C 21.789062 177.546875 15.992188 172.140625 11.960938 165.539062 C 8.089844 159.144531 5.828125 151.660156 5.828125 143.652344 C 5.828125 132.007812 10.558594 121.484375 18.175781 113.839844 C 25.816406 106.226562 36.34375 101.496094 47.988281 101.496094 C 59.632812 101.496094 70.15625 106.226562 77.800781 113.839844 C 85.414062 121.457031 90.144531 132.007812 90.144531 143.652344 C 90.144531 150.253906 88.585938 156.546875 85.832031 162.183594 C 83.074219 167.773438 79.152344 172.660156 74.367188 176.53125 C 72.003906 178.507812 69.039062 180.71875 66.597656 182.613281 L 55.367188 191.347656 Z M 61.867188 191.347656 "/></g></g></svg>